<svg width="16" height="16" viewBox="0 0 16 16" fill="none" xmlns="http://www.w3.org/2000/svg">
<mask id="mask0_694_2243" style="mask-type:alpha" maskUnits="userSpaceOnUse" x="0" y="0" width="16" height="16">
<path d="M16 0H0V16H16V0Z" fill="#D9D9D9"/>
</mask>
<g mask="url(#mask0_694_2243)">
<path d="M10.299 8.01547L5.25664 12.916C5.08513 13.0827 5.00223 13.2772 5.00795 13.4994C5.01366 13.7217 5.10228 13.9162 5.27379 14.0829C5.4453 14.2495 5.64539 14.3329 5.87407 14.3329C6.10275 14.3329 6.30284 14.2495 6.47435 14.0829L11.7568 8.96558C11.894 8.83223 11.9969 8.68221 12.0656 8.51553C12.1342 8.34884 12.1685 8.18216 12.1685 8.01547C12.1685 7.84878 12.1342 7.6821 12.0656 7.51541C11.9969 7.34872 11.894 7.19871 11.7568 7.06536L6.47435 1.93142C6.30284 1.76473 6.09989 1.68417 5.86549 1.68972C5.6311 1.69528 5.42814 1.7814 5.25664 1.94809C5.08513 2.11477 4.99937 2.30924 4.99937 2.53149C4.99937 2.75374 5.08513 2.9482 5.25664 3.11489L10.299 8.01547Z" fill="#737373"/>
</g>
</svg>
