<svg width="118" height="92" viewBox="0 0 118 92" fill="none" xmlns="http://www.w3.org/2000/svg">
<path d="M7.42203 27.9008C2.16577 30.0154 -2.53629 25.2557 1.5509 19.5592C5.63809 13.8627 16.6503 5.18574 37.2224 10.1492C51.5902 13.6158 61.1447 26.6526 57.0474 28.7443C51.106 31.7776 50.2633 20.7612 36.2315 18.1978C30.4788 17.1468 26.4466 17.703 20.8541 19.5601C14.9952 21.5056 12.8443 25.7195 7.42203 27.9008Z" fill="black"/>
<path d="M84.2715 20.5543C72.6994 27.6096 63.0316 24.9634 59.3696 21.7304C56.7043 19.3772 57.6117 13.645 64.057 17.9071C71.3109 22.7039 81.4883 16.7311 88.8124 10.7038C96.1365 4.67659 101.41 -1.3507 109.613 0.266416C117.816 1.88353 118.659 13.8723 109.613 13.8723C100.6 13.8723 93.3976 14.9904 84.2715 20.5543Z" fill="black"/>
<path fill-rule="evenodd" clip-rule="evenodd" d="M106.284 33.9509C104.925 31.8712 103.302 30.1455 101.373 28.818C98.0852 26.871 93.8763 25.8975 88.8782 25.8975C82.9595 25.8975 78.3122 27.0922 74.8486 29.4375C71.4289 31.7827 68.9737 35.3227 67.483 40.0132C67.0885 41.3407 66.7377 42.8009 66.4308 44.3497C66.2554 45.3674 66.0801 46.3852 65.9485 47.5357V47.8897V48.0667L65.9047 48.1552C65.3348 51.1199 62.7481 53.3766 59.5914 53.3766C56.4786 53.3766 53.8918 51.1199 53.278 48.1552V48.0667V47.8897C53.278 47.8897 53.2342 47.6684 53.2342 47.5357C53.1027 46.4294 52.9273 45.3674 52.7519 44.3497C52.445 42.8009 52.0943 41.3407 51.6997 40.0132C50.2529 35.3227 47.7977 31.7827 44.3342 29.4375C40.8268 27.0922 36.1356 25.8975 30.2169 25.8975C25.175 25.8975 21.0099 26.871 17.6779 28.7737C15.7926 30.1012 14.1266 31.8269 12.7675 33.9067C9.21626 39.3937 7.37487 47.6684 7.11182 58.6424C7.33103 69.6164 9.21626 77.8911 12.7675 83.3781C14.1266 85.4578 15.7488 87.1836 17.6779 88.5111C21.0099 90.4138 25.175 91.3873 30.2169 91.3873C36.1356 91.3873 40.7829 90.1926 44.2465 87.8473C47.6662 85.5021 50.1214 81.9621 51.612 77.2716C52.0066 75.9441 52.3574 74.4838 52.6642 72.9351L52.6643 72.9349C52.8396 71.9172 53.015 70.8995 53.1465 69.7491V69.3951V69.2181L53.1904 69.1296C53.7603 66.1649 56.347 63.9081 59.5037 63.9081C62.6165 63.9081 65.2032 66.1649 65.817 69.1296V69.2181V69.3951C65.817 69.3951 65.8609 69.6164 65.8609 69.7491C65.9924 70.8554 66.1678 71.9173 66.3431 72.9351C66.65 74.4838 67.0008 75.9441 67.3954 77.2716C68.8422 81.9621 71.2973 85.5021 74.7609 87.8473C78.1806 90.1926 82.8718 91.3873 88.7905 91.3873C93.8324 91.3873 97.9975 90.4138 101.33 88.5111C103.215 87.1836 104.881 85.4578 106.24 83.3781C109.791 77.8911 111.633 69.6164 111.896 58.6424C111.676 47.6684 109.791 39.3937 106.24 33.9067L106.284 33.9509ZM95.9838 59.3194L95.9817 59.2791C95.9817 59.2791 95.6874 56.1087 95.5931 54.5054C95.4989 52.9021 95.5084 49.7159 95.5084 49.7159L95.5175 49.675L95.5133 49.5943L95.5049 49.4329C95.5112 48.9067 95.5317 48.4404 95.5522 47.9742L95.5522 47.9741C95.5935 47.264 95.6481 46.5936 95.717 45.9832C95.9847 43.8252 96.5247 42.1789 97.3378 41.0645C98.1621 39.9496 99.3142 39.3435 100.817 39.2653C102.098 39.1987 103.179 39.5874 104.07 40.4108C104.591 40.9905 105.044 41.7558 105.439 42.686C106.47 45.1405 107.144 48.8879 107.459 53.888C107.652 58.8943 107.38 62.691 106.607 65.2394C106.311 66.2055 105.929 67.0143 105.481 67.6444C104.68 68.5558 103.645 69.0547 102.365 69.1213C100.861 69.1995 99.6417 68.7169 98.6954 67.6941C97.7603 66.6707 97.0532 65.0893 96.5749 62.97C96.4433 62.3701 96.3197 61.709 96.2052 61.007C96.1366 60.5453 96.067 60.0635 96.0074 59.5609C96.0043 59.5004 95.9879 59.4001 95.9879 59.4001L95.9838 59.3194ZM34.7411 59.2791L34.7431 59.3194L34.7473 59.4001C34.7473 59.4001 34.7637 59.5004 34.7668 59.5609C34.8264 60.0635 34.896 60.5453 34.9646 61.007C35.0791 61.709 35.2027 62.3701 35.3343 62.97C35.8125 65.0893 36.5197 66.6707 37.4548 67.6941C38.4011 68.7169 39.6207 69.1995 41.124 69.1213C42.4046 69.0547 43.4394 68.5558 44.2407 67.6444C44.6882 67.0143 45.0706 66.2055 45.3666 65.2394C46.1389 62.691 46.4111 58.8943 46.2187 53.888C45.9038 48.8879 45.2295 45.1405 44.1979 42.686C43.8036 41.7558 43.3508 40.9905 42.8295 40.4108C41.9383 39.5874 40.8574 39.1987 39.5769 39.2653C38.0736 39.3435 36.9215 39.9496 36.0972 41.0645C35.2841 42.1789 34.7441 43.8252 34.4763 45.9832C34.4075 46.5936 34.3529 47.264 34.3116 47.9741L34.3115 47.9742L34.3115 47.9743C34.291 48.4405 34.2706 48.9068 34.2643 49.4329L34.2727 49.5943L34.2769 49.675L34.2678 49.7159C34.2678 49.7159 34.2583 52.9021 34.3525 54.5054C34.4468 56.1087 34.7411 59.2791 34.7411 59.2791Z" fill="black"/>
<path d="M115.94 38.29H107.474H107.452H100.136H85.4735C77.0292 38.29 69.0158 39.3945 67.6657 40.7442C66.3156 42.0943 64.1068 42.0943 62.7572 40.7442C61.4073 39.3945 53.3937 38.29 44.9489 38.29H25.1085H23.0396H23.0171H14.5738C13.4363 38.29 12.5143 39.2124 12.5143 40.3499V47.1289C12.5143 48.2664 13.4363 49.1888 14.5738 49.1888H17.794L19.048 61.1096C19.8068 68.323 27.3397 74.224 35.7882 74.224H36.1199C44.5682 74.224 53.7151 68.617 56.4458 61.7636L60.2917 52.1117C63.0223 45.258 67.4908 45.258 70.2215 52.1117L74.0671 61.7636C76.7982 68.6172 85.9447 74.224 94.393 74.224H94.7251C103.174 74.224 110.707 68.3228 111.465 61.1096L112.719 49.1888H115.94C117.077 49.1888 117.999 48.2664 117.999 47.1289V40.3499C117.999 39.2124 117.077 38.29 115.94 38.29ZM39.8018 66.5767C39.3994 66.9791 38.8722 67.1804 38.345 67.1804C37.8178 67.1804 37.2906 66.9791 36.8882 66.5767L24.4768 54.1657C23.6723 53.361 23.6721 52.0565 24.4768 51.2519C25.2813 50.4474 26.5861 50.4472 27.3904 51.2519L39.8018 63.6629C40.6063 64.4679 40.6063 65.7724 39.8018 66.5767ZM47.2632 64.5781C46.8609 64.9804 46.3336 65.1817 45.8064 65.1817C45.279 65.1817 44.752 64.9804 44.3496 64.5781L26.0257 46.2542C25.2212 45.4496 25.2212 44.1451 26.0257 43.3405C26.8302 42.536 28.1348 42.536 28.9393 43.3405L47.2632 61.6645C48.0678 62.469 48.0678 63.7735 47.2632 64.5781ZM95.912 66.5767C95.5097 66.9791 94.9824 67.1804 94.4552 67.1804C93.928 67.1804 93.4006 66.9791 92.9984 66.5767L80.587 54.1657C79.7825 53.361 79.7823 52.0565 80.587 51.2519C81.3916 50.4474 82.6961 50.4472 83.5006 51.2519L95.912 63.6629C96.7166 64.4679 96.7166 65.7724 95.912 66.5767ZM103.373 64.5781C102.971 64.9804 102.444 65.1817 101.917 65.1817C101.389 65.1817 100.862 64.9804 100.46 64.5781L82.1359 46.2542C81.3314 45.4496 81.3314 44.1451 82.1359 43.3405C82.9407 42.5362 84.245 42.536 85.0497 43.3405L103.374 61.6645C104.178 62.469 104.178 63.7735 103.373 64.5781Z" fill="#FB23CB"/>
</svg>
