<svg width="80" height="24" viewBox="0 0 80 24" fill="none" xmlns="http://www.w3.org/2000/svg">
<path d="M6.28759 23.3708C5.37391 23.3708 4.58414 23.1239 3.91831 22.6302C3.25149 22.1355 2.91906 21.447 2.91906 20.5638C2.91906 19.9049 3.03905 19.3659 3.27805 18.9469C3.51704 18.528 3.88487 18.0411 4.3786 17.4864C4.81233 17.0075 5.13491 16.5964 5.3444 16.2511C5.55389 15.9069 5.65912 15.4869 5.65912 14.9932V14.1622C5.65912 13.7884 5.60995 13.4845 5.51357 13.2524C5.4162 13.0213 5.19884 12.8334 4.86248 12.6918C4.52514 12.5492 4.02748 12.4705 3.36853 12.4558H3.12167C2.11848 12.4558 1.34741 12.2315 0.808444 11.7821C0.269479 11.3326 0 10.7789 0 10.1199C0 9.6567 0.145561 9.20723 0.437664 8.77252C0.729767 8.33879 1.15267 7.98669 1.70639 7.71721C2.26011 7.44773 2.91906 7.31299 3.68325 7.31299H9.16338C9.86659 7.31299 10.4773 7.45166 10.9937 7.72901C11.51 8.00636 11.9034 8.36927 12.1729 8.81775C12.4424 9.26722 12.5771 9.73144 12.5771 10.2104C12.5771 10.8389 12.349 11.371 11.8926 11.8047C11.4353 12.2394 10.7803 12.4558 9.92658 12.4558H9.63546C8.88603 12.4705 8.31362 12.5492 7.91727 12.6918C7.52091 12.8344 7.25438 13.0252 7.12063 13.2642C6.9849 13.5032 6.91802 13.8032 6.91802 14.1622V14.9932C6.91802 15.4869 7.02227 15.9069 7.23176 16.2511C7.44125 16.5954 7.76384 17.0075 8.19757 17.4864C8.69129 18.0411 9.05912 18.528 9.29812 18.9469C9.53711 19.3659 9.65809 19.9049 9.65809 20.5638C9.65809 21.447 9.32467 22.1355 8.65785 22.6302C7.99103 23.1239 7.20127 23.3708 6.28857 23.3708H6.28759Z" fill="black"/>
<path d="M17.0925 23.3784C16.2083 23.3784 15.4441 23.1394 14.7999 22.6614C14.1547 22.1834 13.8331 21.5176 13.8331 20.6619C13.8331 19.9951 13.9629 19.4266 14.2246 18.9565C14.4852 18.4854 14.8697 17.9602 15.3772 17.3809C15.7529 16.9462 16.0322 16.5803 16.2132 16.2833C16.3952 15.9863 16.4856 15.6568 16.4856 15.2949C16.4856 14.8887 16.3952 14.5346 16.2132 14.2297C16.0322 13.9258 15.7392 13.5344 15.333 13.0564C14.855 12.5204 14.4862 12.0168 14.2246 11.5457C13.9639 11.0756 13.8331 10.5062 13.8331 9.83934C13.8331 9.23153 14.018 8.7388 14.3878 8.36114C14.7566 7.98445 15.1982 7.71693 15.7136 7.5576C16.228 7.39827 16.7168 7.3186 17.181 7.3186C17.6452 7.3186 18.0976 7.40221 18.5825 7.56842C19.0674 7.73463 19.4844 8.00609 19.8315 8.38375C20.1797 8.76044 20.3538 9.24629 20.3538 9.83934C20.3538 10.5062 20.223 11.0746 19.9624 11.5457C19.7017 12.0168 19.3319 12.5204 18.8539 13.0564C18.4477 13.5344 18.1547 13.9258 17.9737 14.2297C17.7917 14.5336 17.7022 14.8887 17.7022 15.2949C17.7022 15.6568 17.7917 15.9873 17.9737 16.2833C18.1547 16.5803 18.434 16.9462 18.8107 17.3809C19.3172 17.9602 19.7017 18.4854 19.9624 18.9565C20.223 19.4276 20.3538 19.9961 20.3538 20.6619C20.3538 21.5166 20.0312 22.1834 19.387 22.6614C18.7418 23.1394 17.9786 23.3784 17.0944 23.3784H17.0925Z" fill="black"/>
<path d="M27.777 23.3701C26.9066 23.3701 26.0578 23.2471 25.2306 23.0003C24.4035 22.7544 23.718 22.3846 23.1741 21.8909C22.6302 21.3981 22.3578 20.7962 22.3578 20.0842C22.3578 19.3298 22.6371 18.7141 23.1958 18.2352C23.7544 17.7562 24.556 17.5241 25.6005 17.5388C25.8473 17.5388 26.166 17.5644 26.5584 17.6146C26.9498 17.6657 27.3413 17.7198 27.7337 17.7778C28.2412 17.8506 28.7634 17.9195 29.3004 17.9844C29.8364 18.0503 30.3085 18.0817 30.7147 18.0817C31.1209 18.0817 31.4661 18.0463 31.7484 17.9735C32.0316 17.9008 32.2293 17.7837 32.3621 17.5949C32.5017 17.3972 32.5499 17.2448 32.5588 16.993C32.5716 16.6163 32.4536 16.336 32.1821 16.1304C31.8674 15.8915 31.4523 15.6947 30.7993 15.6947C30.3203 15.6947 29.8315 15.7538 29.382 15.8334C28.9326 15.9131 28.4497 16.0921 27.9127 16.2229C27.5793 16.2957 27.3727 16.3252 26.997 16.3832C26.5761 16.4491 26.1256 16.453 25.5464 16.4078C25.0251 16.3675 24.491 16.2416 23.9255 15.8285C23.36 15.4154 22.942 14.8961 22.6735 14.2726C22.405 13.649 22.2713 13.0324 22.2713 12.4226C22.2713 11.5237 22.4925 10.6857 22.9351 9.90974C23.3777 9.13375 24.0524 8.50626 24.9592 8.02729C25.865 7.54832 26.9793 7.30933 28.2992 7.30933C29.4155 7.30933 30.3341 7.45489 31.052 7.74503C31.77 8.03516 32.2844 8.41185 32.5971 8.87705C32.9089 9.34225 33.0653 9.83498 33.0653 10.3572C33.0653 10.967 32.8725 11.4706 32.489 11.8699C32.1044 12.2692 31.5202 12.4679 30.7373 12.4679C30.4187 12.4679 30.0843 12.4285 29.7371 12.3479C29.3889 12.2682 28.968 12.1561 28.4753 12.0105C27.8222 11.8217 27.2931 11.684 26.8869 11.5964C26.4797 11.5099 26.045 11.4656 25.5808 11.4656C25.029 11.4656 24.6022 11.6112 24.2973 11.9004C23.9924 12.1915 23.84 12.5318 23.84 12.9232C23.84 13.3441 24.018 13.714 24.373 14.0326C24.7281 14.3513 25.2179 14.5116 25.8414 14.5116C26.1601 14.5116 26.7266 14.4467 27.5389 14.3159C28.0179 14.2431 28.5293 14.1742 29.0732 14.1093C29.6171 14.0444 30.1207 14.012 30.5849 14.012C31.6146 14.012 32.4781 14.3237 33.1745 14.9473C33.8708 15.5708 34.219 16.4275 34.219 17.5152C34.219 18.8351 33.9327 19.9307 33.3594 20.8011C32.786 21.6716 32.0139 22.3177 31.0412 22.7377C30.0695 23.1576 28.9818 23.3691 27.7779 23.3691L27.777 23.3701Z" fill="black"/>
<path d="M38.7512 23.3766C37.867 23.3766 37.1028 23.1377 36.4586 22.6597C35.8135 22.1817 35.4919 21.5158 35.4919 20.6602C35.4919 19.9944 35.6443 19.418 35.9482 18.9322C36.2521 18.4473 36.6937 17.9005 37.274 17.2917C37.7225 16.8284 38.0519 16.4439 38.2624 16.14C38.4719 15.8361 38.5771 15.5027 38.5771 15.1407C38.5771 14.7355 38.4719 14.3883 38.2624 14.0982C38.0519 13.809 37.7087 13.4314 37.2297 12.9681C36.679 12.4616 36.2511 11.9797 35.9472 11.5234C35.6433 11.067 35.4909 10.5054 35.4909 9.83959C35.4909 9.23178 35.6758 8.73905 36.0456 8.36138C36.4144 7.9847 36.857 7.71718 37.3713 7.55687C37.8847 7.39754 38.3745 7.31788 38.8378 7.31788C39.301 7.31788 39.7544 7.40147 40.2393 7.56768C40.7241 7.73488 41.1411 8.00633 41.4883 8.38302C41.8365 8.7597 42.0106 9.24556 42.0106 9.83862C42.0106 10.4317 41.9014 10.9254 41.685 11.2736C41.4677 11.6207 41.1628 11.9689 40.7723 12.3161C40.4969 12.5629 40.2943 12.7764 40.1645 12.9573C40.0347 13.1383 39.9688 13.3527 39.9688 13.5986C39.9688 14.0333 40.1429 14.3303 40.491 14.4896C40.8392 14.6499 41.3674 14.7355 42.0774 14.7503H43.1416C43.6776 14.7503 44.1595 14.6667 44.5874 14.5005C45.0142 14.3342 45.2286 14.0333 45.2286 13.5986C45.2286 13.3675 45.1558 13.1609 45.0113 12.979C44.8657 12.798 44.6562 12.5915 44.3808 12.3593C43.9461 11.9974 43.6127 11.6384 43.3806 11.2834C43.1495 10.9283 43.0334 10.4464 43.0334 9.83862C43.0334 9.23081 43.2183 8.73807 43.5871 8.3604C43.9569 7.98371 44.3985 7.71619 44.9129 7.55588C45.4273 7.39655 45.9161 7.31689 46.3803 7.31689C46.8445 7.31689 47.296 7.40048 47.7818 7.5667C48.2677 7.7339 48.6837 8.00535 49.0319 8.38203C49.38 8.75872 49.5531 9.24458 49.5531 9.83764C49.5531 10.5045 49.4086 11.0552 49.1184 11.4899C48.8283 11.9246 48.4014 12.4026 47.8359 12.9239C47.3727 13.3586 47.0275 13.7314 46.8042 14.0431C46.579 14.3549 46.4669 14.7208 46.4669 15.1407C46.4816 15.5027 46.5977 15.84 46.815 16.1518C47.0324 16.4635 47.3579 16.851 47.7926 17.3143C48.3582 17.9083 48.7919 18.4512 49.0968 18.944C49.4007 19.4367 49.5531 20.0091 49.5531 20.6602C49.5531 21.5149 49.2305 22.1817 48.5863 22.6597C47.9421 23.1377 47.177 23.3766 46.2938 23.3766C45.4106 23.3766 44.6454 23.1377 44.0012 22.6597C43.356 22.1817 43.0344 21.5149 43.0344 20.6602C43.0344 20.0661 43.1465 19.6069 43.3708 19.2803C43.595 18.9538 43.9176 18.6253 44.3376 18.2909C44.6415 18.045 44.8667 17.8277 45.0113 17.6388C45.1558 17.451 45.2286 17.212 45.2286 16.9219C45.2286 16.5019 45.0831 16.2236 44.7939 16.0849C44.5038 15.9472 44.0258 15.8715 43.36 15.8567H41.8601C41.208 15.8715 40.7261 15.9511 40.4143 16.0957C40.1026 16.2413 39.9472 16.5157 39.9472 16.9219C39.9472 17.212 40.015 17.451 40.1537 17.6388C40.2914 17.8277 40.5048 18.0519 40.795 18.3125C41.1864 18.646 41.4864 18.9754 41.6968 19.301C41.9063 19.6275 42.0125 20.0799 42.0125 20.6592C42.0125 21.5139 41.6899 22.1807 41.0448 22.6587C40.3996 23.1367 39.6364 23.3757 38.7522 23.3757L38.7512 23.3766Z" fill="black"/>
<path d="M58.2765 23.9448H56.7993C56.7895 23.9349 56.7806 23.9162 56.7698 23.9162C56.2869 23.8936 55.8168 23.7963 55.3535 23.6615C54.8244 23.5061 54.313 23.3065 53.893 22.9377C53.3481 22.4597 52.9105 21.8951 52.5879 21.2441C52.281 20.6244 52.044 19.9793 51.8955 19.3036C51.7952 18.8482 51.6909 18.3919 51.6162 17.9316C51.5591 17.5814 51.5444 17.2254 51.5149 16.8714C51.4814 16.4593 51.4234 16.0462 51.4283 15.6341C51.4352 14.981 51.4805 14.328 51.5188 13.6749C51.5385 13.3415 51.5631 13.0062 51.6152 12.6757C51.6811 12.2548 51.7765 11.8387 51.8611 11.4198C52.0076 10.692 52.2515 9.99563 52.5761 9.32881C52.8613 8.74165 53.2459 8.2263 53.717 7.76995C54.073 7.42474 54.4851 7.18476 54.9444 7.01756C55.6309 6.76873 56.3449 6.62908 57.0707 6.60351C57.6048 6.58482 58.1437 6.61236 58.6758 6.66547C59.2571 6.72251 59.8265 6.85331 60.3743 7.06772C61.3057 7.4326 62.0453 8.02959 62.5794 8.8764C62.901 9.38684 63.1449 9.93465 63.2816 10.5208C63.4242 11.1345 63.5521 11.7532 63.6435 12.3757C63.6976 12.7445 63.8422 13.0563 64.0802 13.3199C64.4176 13.6926 64.8356 13.913 65.3588 13.8539C65.5496 13.8323 65.7492 13.8205 65.9273 13.7556C66.4898 13.55 66.8468 13.1419 66.9806 12.5596C67.0475 12.2666 67.0642 11.9627 67.1094 11.6646C67.2038 11.05 67.3602 10.45 67.5864 9.87073C68.0113 8.78395 68.6821 7.8978 69.7138 7.32146C70.4868 6.89068 71.3346 6.6812 72.2089 6.63989C73.0312 6.60055 73.8583 6.58088 74.6756 6.75005C75.1634 6.85135 75.6375 6.98904 76.0869 7.20344C76.4892 7.39523 76.8167 7.68634 77.1245 8.00697C77.4422 8.33743 77.7009 8.70625 77.9192 9.10457C78.2418 9.69467 78.4818 10.3202 78.6431 10.9703C78.7817 11.5329 78.8909 12.1033 78.9903 12.6737C79.0463 12.9924 79.062 13.3179 79.0857 13.6415C79.122 14.1264 79.1594 14.6122 79.1781 15.0981C79.1879 15.3617 79.1604 15.6272 79.1506 15.8918C79.1397 16.1613 79.1309 16.4317 79.1181 16.7012C79.1122 16.8251 79.1034 16.9481 79.0866 17.071C79.0375 17.4349 78.9873 17.7988 78.9293 18.1607C78.8781 18.4814 78.8368 18.8059 78.7562 19.1197C78.6391 19.576 78.5083 20.0314 78.351 20.4759C78.0156 21.423 77.4904 22.2512 76.7292 22.918C76.5993 23.0321 76.4577 23.1393 76.3062 23.2219C75.6306 23.5878 74.9038 23.7913 74.1435 23.8808C73.9989 23.8976 73.8553 23.9221 73.7117 23.9428H72.3289C72.2866 23.932 72.2453 23.9162 72.203 23.9113C71.9827 23.8887 71.7555 23.8926 71.5421 23.8425C71.1241 23.7441 70.7051 23.6409 70.3019 23.4963C69.4 23.1737 68.685 22.5944 68.15 21.8046C67.7822 21.2617 67.4979 20.6726 67.3533 20.0294C67.2196 19.4354 67.075 18.8403 66.9934 18.2384C66.9196 17.6955 66.6983 17.2746 66.2498 16.9648C65.9233 16.7386 65.5643 16.6599 65.1739 16.6825C64.6713 16.712 64.2681 16.9255 63.9661 17.3248C63.7557 17.6031 63.6396 17.909 63.6111 18.267C63.5786 18.6594 63.4724 19.0459 63.4016 19.4354C63.2393 20.3195 62.9197 21.1398 62.4004 21.8784C62.1456 22.2403 61.8506 22.5669 61.4985 22.8354C61.1238 23.1206 60.7166 23.3468 60.2721 23.5101C59.7449 23.7048 59.202 23.8258 58.6444 23.8848C58.5214 23.8976 58.3995 23.9231 58.2765 23.9438V23.9448ZM61.8181 14.7017C61.8014 14.445 61.7847 14.1647 61.765 13.8844C61.7454 13.5904 61.7454 13.2933 61.6972 13.0042C61.6096 12.479 61.5221 11.9508 61.3795 11.4394C61.29 11.1178 61.1238 10.808 60.9467 10.5218C60.7658 10.2287 60.1619 10.0674 59.8157 10.1628C59.5393 10.2395 59.2954 10.3536 59.1204 10.5975C58.7388 11.1316 58.668 11.7541 58.6286 12.3747C58.5932 12.9432 58.6188 13.5146 58.6227 14.0851C58.6237 14.2611 58.6375 14.4362 58.6552 14.6112C58.6837 14.9024 58.7171 15.1935 58.7516 15.4846C58.7742 15.6774 58.7889 15.8721 58.8302 16.0609C58.8971 16.3678 58.9699 16.6737 59.0653 16.9727C59.1745 17.3139 59.3594 17.6188 59.6456 17.8421C59.9377 18.0703 60.2878 18.0762 60.631 18.0201C60.989 17.9621 61.2369 17.7427 61.4002 17.4182C61.6569 16.9087 61.705 16.354 61.7611 15.8023C61.7975 15.4453 61.7985 15.0853 61.8162 14.7017H61.8181ZM76.5541 18.0417C76.6534 18.0368 76.7547 18.0437 76.8501 18.025C77.3822 17.9188 77.6261 17.5352 77.7717 17.0572C77.9359 16.5202 77.994 15.9655 78.0126 15.4108C78.0323 14.8119 78.0185 14.21 77.9812 13.612C77.9517 13.1389 77.8809 12.6659 77.7953 12.1977C77.7058 11.705 77.5878 11.2172 77.3399 10.7706C77.1609 10.449 76.9229 10.2415 76.5413 10.1727C76.0437 10.0832 75.5362 10.2612 75.2726 10.7038C74.9579 11.2309 74.8664 11.82 74.8526 12.4101C74.8359 13.1537 74.8792 13.8982 74.9097 14.6417C74.9234 14.9811 74.9667 15.3184 75.0021 15.6567C75.0542 16.1593 75.1487 16.651 75.3473 17.1192C75.5598 17.6188 75.961 18.084 76.5541 18.0417Z" fill="black"/>
<path d="M49.254 6.03172C49.3799 5.75633 49.4743 5.46128 49.6385 5.21147C49.912 4.79545 50.267 4.44532 50.6457 4.11781C51.0774 3.74407 51.5505 3.43426 52.057 3.1756C52.6137 2.89136 53.2008 2.68582 53.8106 2.54419C54.4076 2.40552 55.0085 2.3111 55.6242 2.32192C56.0323 2.32978 56.4435 2.29929 56.8497 2.32978C57.3031 2.3642 57.7535 2.44387 58.2049 2.51271C58.8629 2.61205 59.5081 2.76744 60.1306 3.00348C60.9273 3.30542 61.6679 3.71063 62.3554 4.21419C63.1195 4.77381 63.7972 5.41604 64.2958 6.22842C64.4689 6.51069 64.5928 6.81263 64.6046 7.16276C64.6145 7.43617 64.4492 7.58468 64.2447 7.66434C63.7805 7.84334 63.3841 7.70762 63.0389 7.38109C62.6829 7.04375 62.3406 6.69068 61.9796 6.35825C61.2686 5.7052 60.4493 5.23016 59.516 4.97937C59.0901 4.86528 58.6475 4.81119 58.2098 4.74627C57.9502 4.70792 57.6856 4.69119 57.423 4.68234C56.8231 4.66267 56.234 4.75708 55.6586 4.91051C55.1256 5.05312 54.5797 5.17902 54.1007 5.46817C53.7526 5.67766 53.4103 5.90189 53.0897 6.1517C52.5222 6.59428 51.9754 7.06539 51.3046 7.34864C50.7834 7.56895 50.2532 7.62796 49.7546 7.2857C49.5107 7.1185 49.3415 6.88344 49.2845 6.58248C49.2815 6.56478 49.2648 6.55003 49.255 6.53429C49.255 6.36709 49.255 6.19891 49.255 6.03172H49.254Z" fill="black"/>
<path d="M78.0844 3.70495C77.694 3.70495 77.3025 3.6843 76.914 3.70889C76.082 3.76298 75.2627 3.89969 74.4602 4.13082C73.6311 4.36981 72.8502 4.71896 72.0998 5.13892C71.6759 5.37595 71.2618 5.63165 70.8281 5.84803C70.1672 6.17849 69.4748 6.4342 68.7381 6.52665C68.2621 6.58665 67.7772 6.64468 67.3022 6.61517C66.5292 6.56698 65.7945 6.34667 65.1463 5.8972C64.8395 5.68476 64.6526 5.38676 64.6034 5.02089C64.5543 4.65601 64.808 4.26162 65.3037 4.34916C65.7099 4.42095 66.0335 4.63536 66.3738 4.83206C66.6963 5.01795 67.0416 5.12711 67.4104 5.18416C67.9326 5.26382 68.4421 5.17628 68.9338 5.04351C69.5879 4.86648 70.2124 4.59602 70.7848 4.22622C71.3356 3.87019 71.8824 3.50629 72.4135 3.12075C72.7626 2.86701 73.0803 2.569 73.4137 2.29263C73.8386 1.93955 74.2645 1.58844 74.6884 1.23634C75.1044 0.890145 75.5529 0.59017 76.0417 0.359045C76.5206 0.132837 77.0262 -0.0195953 77.5602 0.00204191C78.0687 0.0226957 78.5831 0.0620255 79.0276 0.360029C79.542 0.704258 79.8764 1.16356 79.9738 1.78907C80.0406 2.21789 79.9846 2.61621 79.7495 2.98207C79.4918 3.38433 79.1004 3.57317 78.6431 3.64005C78.4591 3.6666 78.2723 3.6725 78.0874 3.68726C78.0874 3.69316 78.0874 3.69905 78.0864 3.70495H78.0844Z" fill="black"/>
</svg>
