<svg width="25" height="25" viewBox="0 0 25 25" fill="none" xmlns="http://www.w3.org/2000/svg">
<path d="M3.44583 6.1112C2.67819 6.6071 2.05366 7.21037 1.55997 7.91077C0.853663 9.12957 0.5 10.6633 0.5 12.514V12.8422C0.5 14.6929 0.853663 16.2266 1.55997 17.4454C2.05366 18.1458 2.67819 18.7491 3.44583 19.245C5.45843 20.5477 8.44923 21.2327 12.4775 21.3186C16.5068 21.2327 19.4363 20.5477 21.4499 19.245C22.2175 18.7491 22.9463 18.1458 23.44 17.4454C24.1463 16.2266 24.5 14.6939 24.5 12.8422V12.514C24.5 10.6633 24.1453 9.12957 23.44 7.91179C22.9463 7.21139 22.3218 6.60812 21.5552 6.11222C19.5416 4.80957 16.5068 4.12451 12.4775 4.03862C8.44821 4.12451 5.45843 4.80957 3.44583 6.11222V6.1112Z" fill="#CACACA"/>
<path d="M19.1419 3.44538C18.646 2.67775 18.0428 2.05322 17.3424 1.55952C16.1246 0.85322 14.5909 0.499557 12.7402 0.499557H12.4119C10.5612 0.499557 9.02752 0.85322 7.80872 1.55952C7.10832 2.05322 6.50505 2.67775 6.00915 3.44538C4.7065 5.45799 4.02144 8.44879 3.93555 12.4771C4.02144 16.5064 4.7065 19.4358 6.00915 21.4495C6.50505 22.2171 7.10832 22.9459 7.80872 23.4396C9.02752 24.1459 10.5602 24.4996 12.4119 24.4996H12.7402C14.5909 24.4996 16.1246 24.1449 17.3424 23.4396C18.0428 22.9459 18.646 22.3214 19.1419 21.5548C20.4446 19.5411 21.1297 16.5064 21.2155 12.4771C21.1297 8.44777 20.4446 5.45799 19.1419 3.44538Z" fill="#CACACA"/>
<path d="M12.5342 4.33656C15.5183 4.40081 18.0112 4.79198 19.8633 5.51039C20.5787 7.34402 20.9438 9.76178 21.0068 12.7399C20.9431 15.683 20.4616 17.9901 19.748 19.8336C17.9127 20.5819 15.5681 21.0497 12.5342 21.1149C9.57854 21.0525 7.29611 20.6646 5.46777 19.9567C4.67479 18.3148 4.1851 15.6487 4.11914 12.61C4.1832 9.63201 4.54548 7.27748 5.26172 5.44594C7.09578 4.73185 9.54963 4.40095 12.5342 4.33656Z" fill="#CACACA" stroke="white" stroke-width="0.5" stroke-miterlimit="10"/>
</svg>
