<svg width="27" height="25" viewBox="0 0 27 25" fill="none" xmlns="http://www.w3.org/2000/svg">
<path d="M18.457 1.04472H18.7754C20.4893 1.04472 21.8648 1.37739 22.9375 2.00468C23.5318 2.43705 24.068 3.08945 24.5264 3.81425H24.5273C25.7121 5.68513 26.3696 8.46757 26.4531 12.4139C26.3696 16.3619 25.7115 19.2041 24.5273 21.073H24.5264C24.0872 21.7675 23.5578 22.3294 22.9463 22.7742C21.8723 23.4048 20.493 23.7391 18.7754 23.7391H18.457C16.7386 23.739 15.3592 23.4043 14.2861 22.7732C13.6752 22.3286 13.1459 21.767 12.707 21.073L12.4902 20.7107C11.4419 18.8442 10.8576 16.1158 10.7793 12.4139C10.8629 8.46367 11.5233 5.57887 12.707 3.70976C13.1476 3.01411 13.6791 2.45107 14.293 2.00566C15.3653 1.37817 16.7429 1.04474 18.457 1.04472Z" fill="#CACACA" stroke="#CACACA" stroke-width="1.09057"/>
<path d="M20.5346 22.4455C21.2833 21.954 21.8924 21.3562 22.3739 20.6621C23.0628 19.4552 23.4078 17.9353 23.4078 16.1012V15.7759C23.4078 13.9418 23.0628 12.4219 22.3739 11.214C21.8924 10.5199 21.2833 9.92206 20.5346 9.43061C18.5717 8.13966 15.6547 7.46074 11.7258 7.37563C7.79594 7.46074 4.93876 8.13966 2.97482 9.43061C2.22613 9.92206 1.51532 10.5199 1.03381 11.214C0.344935 12.4219 0 13.9408 0 15.7759V16.1012C0 17.9353 0.345932 19.4552 1.03381 20.6621C1.51532 21.3562 2.12444 21.954 2.87213 22.4455C4.83607 23.7364 7.79594 24.4153 11.7258 24.5004C15.6557 24.4153 18.5717 23.7364 20.5346 22.4455Z" fill="#CACACA"/>
<path d="M12.3018 7.6414C16.2722 7.72587 19.1792 8.39639 21.1152 9.63945C21.8463 10.108 22.439 10.6766 22.9082 11.3348C23.5756 12.4825 23.9179 13.9393 23.918 15.7215V16.0447C23.9179 17.8266 23.5753 19.2828 22.9082 20.4295C22.4389 21.088 21.8465 21.6571 21.1152 22.1258C19.8458 22.9404 18.156 23.5111 16.0176 23.8299C15.3362 23.6641 14.7243 23.4254 14.1816 23.116C13.515 22.6494 12.9395 22.0597 12.4658 21.3318V21.3309C11.2146 19.4115 10.5388 16.5313 10.4531 12.5945C10.4936 10.7389 10.6653 9.10573 10.9668 7.69511C11.3978 7.6696 11.8421 7.65101 12.3018 7.6414Z" fill="#CACACA" stroke="white" stroke-width="0.5" stroke-miterlimit="10"/>
</svg>
