<svg width="23" height="25" viewBox="0 0 23 25" fill="none" xmlns="http://www.w3.org/2000/svg">
<path d="M20.4035 3.44479C19.9022 2.67716 19.2922 2.05263 18.5841 1.55893C17.3529 0.852626 15.8023 0.498964 13.9312 0.498964L13.5993 0.498964C11.7282 0.498963 10.1776 0.852626 8.94533 1.55893C8.2372 2.05262 7.62728 2.67716 7.12591 3.44479C5.80889 5.4574 5.11627 8.44819 5.02944 12.4765C5.11627 16.5058 5.80889 19.4353 7.1259 21.4489C7.62728 22.2165 8.2372 22.9453 8.94532 23.439C10.1776 24.1453 11.7272 24.499 13.5993 24.499L13.9312 24.499C15.8023 24.499 17.3529 24.1443 18.5841 23.439C19.2922 22.9453 19.9022 22.3208 20.4035 21.5542C21.7205 19.5405 22.4132 16.5058 22.5 12.4765C22.4132 8.44717 21.7205 5.4574 20.4035 3.44479Z" fill="#1E78FF"/>
<path d="M15.5888 3.44479C15.0968 2.67716 14.4981 2.05263 13.8031 1.55893C12.5947 0.852626 11.0728 0.498964 9.23632 0.498964L8.91063 0.498964C7.07417 0.498963 5.55224 0.852626 4.34281 1.55893C3.6478 2.05262 3.04918 2.67716 2.55709 3.44479C1.26447 5.4574 0.584669 8.44819 0.49944 12.4765C0.584668 16.5058 1.26446 19.4353 2.55709 21.4489C3.04918 22.2165 3.6478 22.9453 4.34281 23.439C5.55224 24.1453 7.07315 24.499 8.91062 24.499L9.23631 24.499C11.0728 24.499 12.5947 24.1443 13.8031 23.439C14.4981 22.9453 15.0967 22.3208 15.5888 21.5542C16.8815 19.5405 17.5613 16.5058 17.6465 12.4765C17.5613 8.44717 16.8815 5.4574 15.5888 3.44479Z" fill="#6FFF78"/>
<path d="M11.3086 24.7442C10.4435 24.573 9.68072 24.2931 9.01953 23.9063C8.35771 23.4306 7.77713 22.7223 7.29102 21.96C6.09961 20.0945 5.42299 17.4088 5.27246 13.7217L5.24902 12.9708C5.33579 8.9002 6.02165 5.91832 7.29102 3.9317C7.76873 3.18273 8.34789 2.57505 9.01856 2.09381C9.68006 1.70662 10.4429 1.42629 11.3086 1.25494C12.1743 1.42632 12.9372 1.70658 13.5986 2.09381C14.1849 2.51456 14.7009 3.03229 15.1406 3.65631L15.3262 3.9317L15.5576 4.31647C16.679 6.29573 17.2858 9.15381 17.3672 12.9708C17.2814 17.0485 16.5965 20.0784 15.3262 22.0674C14.8484 22.8156 14.2694 23.424 13.5986 23.9053C12.9372 24.2925 12.1742 24.5729 11.3086 24.7442Z" fill="#6FFF78" stroke="white" stroke-width="0.5" stroke-miterlimit="10"/>
</svg>
