<svg width="23" height="25" viewBox="0 0 23 25" fill="none" xmlns="http://www.w3.org/2000/svg">
<path d="M20.4035 3.44476C19.9022 2.67713 19.2922 2.05259 18.5841 1.5589C17.3529 0.852596 15.8023 0.498933 13.9312 0.498933L13.5993 0.498933C11.7282 0.498933 10.1776 0.852595 8.94533 1.5589C8.2372 2.05259 7.62728 2.67713 7.12591 3.44476C5.80889 5.45737 5.11627 8.44816 5.02944 12.4764C5.11627 16.5057 5.80889 19.4352 7.1259 21.4488C7.62728 22.2165 8.2372 22.9453 8.94532 23.439C10.1776 24.1453 11.7272 24.4989 13.5993 24.4989L13.9312 24.4989C15.8023 24.4989 17.3529 24.1442 18.5841 23.439C19.2922 22.9453 19.9022 22.3207 20.4035 21.5541C21.7205 19.5405 22.4132 16.5057 22.5 12.4764C22.4132 8.44714 21.7205 5.45737 20.4035 3.44476Z" fill="#CACACA"/>
<path d="M15.5908 3.44485C15.0987 2.67722 14.5001 2.05269 13.8051 1.55899C12.5967 0.852687 11.0747 0.499025 9.23827 0.499025L8.91258 0.499025C7.07612 0.499024 5.55419 0.852687 4.34477 1.55899C3.64975 2.05269 3.05113 2.67722 2.55904 3.44485C1.26642 5.45746 0.586622 8.44826 0.501393 12.4765C0.586621 16.5058 1.26642 19.4353 2.55904 21.4489C3.05113 22.2166 3.64975 22.9454 4.34476 23.4391C5.55419 24.1454 7.0751 24.499 8.91258 24.499L9.23827 24.499C11.0747 24.499 12.5967 24.1443 13.8051 23.4391C14.5001 22.9454 15.0987 22.3208 15.5908 21.5542C16.8834 19.5406 17.5632 16.5058 17.6484 12.4765C17.5632 8.44724 16.8834 5.45746 15.5908 3.44485Z" fill="#CACACA"/>
<path d="M11.3398 24.2441C10.4747 24.0729 9.71197 23.793 9.05078 23.4062C8.38896 22.9305 7.80838 22.2222 7.32227 21.46C6.13086 19.5944 5.45424 16.9087 5.30371 13.2217L5.28027 12.4707C5.36704 8.40014 6.0529 5.41826 7.32227 3.43164C7.79998 2.68267 8.37914 2.07499 9.04981 1.59375C9.71131 1.20656 10.4741 0.926226 11.3398 0.754882C12.2055 0.926263 12.9684 1.20652 13.6299 1.59375C14.2162 2.0145 14.7321 2.53222 15.1719 3.15625L15.3574 3.43164L15.5889 3.81641C16.7103 5.79567 17.3171 8.65374 17.3984 12.4707C17.3126 16.5485 16.6277 19.5783 15.3574 21.5674C14.8796 22.3155 14.3007 22.924 13.6299 23.4053C12.9685 23.7924 12.2054 24.0728 11.3398 24.2441Z" fill="#CACACA" stroke="white" stroke-width="0.5" stroke-miterlimit="10"/>
</svg>
