<svg width="54" height="54" viewBox="0 0 54 54" fill="none" xmlns="http://www.w3.org/2000/svg">
<rect x="1.5" y="1.5" width="51" height="51" rx="25.5" fill="#1E78FF"/>
<rect x="1.5" y="1.5" width="51" height="51" rx="25.5" stroke="white" stroke-width="3"/>
<path d="M27 35C26.6762 35 26.405 34.8903 26.1863 34.6709C25.9669 34.4522 25.8571 34.181 25.8571 33.8571V28.1429H20.1429C19.819 28.1429 19.5474 28.0331 19.328 27.8137C19.1093 27.595 19 27.3238 19 27C19 26.6762 19.1093 26.4046 19.328 26.1851C19.5474 25.9665 19.819 25.8571 20.1429 25.8571H25.8571V20.1429C25.8571 19.819 25.9669 19.5474 26.1863 19.328C26.405 19.1093 26.6762 19 27 19C27.3238 19 27.5954 19.1093 27.8149 19.328C28.0335 19.5474 28.1429 19.819 28.1429 20.1429V25.8571H33.8571C34.181 25.8571 34.4522 25.9665 34.6709 26.1851C34.8903 26.4046 35 26.6762 35 27C35 27.3238 34.8903 27.595 34.6709 27.8137C34.4522 28.0331 34.181 28.1429 33.8571 28.1429H28.1429V33.8571C28.1429 34.181 28.0335 34.4522 27.8149 34.6709C27.5954 34.8903 27.3238 35 27 35Z" fill="white"/>
</svg>
