<svg width="27" height="25" viewBox="0 0 27 25" fill="none" xmlns="http://www.w3.org/2000/svg">
<path d="M2.9348 21.5542C3.43068 22.3218 4.03391 22.9463 4.73427 23.44C5.95198 24.1463 7.48562 24.5 9.33621 24.5H9.6644C11.515 24.5 13.0486 24.1463 14.2674 23.44C14.9677 22.9463 15.5709 22.3218 16.0668 21.5542C17.3694 19.5416 18.0544 16.5508 18.1403 12.5225C18.0544 8.49319 17.3694 5.56371 16.0668 3.55008C15.5709 2.78245 14.9677 2.05366 14.2674 1.55997C13.0486 0.853662 11.516 0.5 9.6644 0.5H9.33621C7.48562 0.5 5.95198 0.854684 4.73427 1.55997C4.03391 2.05366 3.43068 2.67819 2.9348 3.4448C1.63224 5.45843 0.947212 8.49319 0.861328 12.5225C0.947212 16.5518 1.63224 19.5416 2.9348 21.5542Z" fill="#CACACA"/>
<path d="M5.08628 6.05565C4.31869 6.54237 3.6942 7.13446 3.20053 7.8219C2.49427 9.01712 2.14062 10.5224 2.14062 12.3389V12.661C2.14062 14.4774 2.49427 15.9828 3.20053 17.179C3.6942 17.8664 4.31869 18.4585 5.08628 18.9452C7.09877 20.2238 10.0894 20.8961 14.1174 20.9804C18.1465 20.8961 21.0758 20.2238 23.0893 18.9452C23.8569 18.4585 24.5856 17.8664 25.0793 17.179C25.7856 15.9828 26.1392 14.4784 26.1392 12.661V12.3389C26.1392 10.5224 25.7845 9.01712 25.0793 7.8219C24.5856 7.13446 23.9611 6.54237 23.1946 6.05565C21.1811 4.77712 18.1465 4.10474 14.1174 4.02045C10.0884 4.10474 7.09877 4.77712 5.08628 6.05565Z" fill="#CACACA"/>
<mask id="path-3-inside-1_734_2011" fill="white">
<path d="M14.0947 4.07251C14.9108 4.08937 15.6865 4.13058 16.4219 4.19458C17.5117 6.17648 18.092 8.92315 18.1709 12.5745C18.0935 16.1581 17.5329 18.9194 16.4814 20.9026C15.7322 20.9703 14.9373 21.0151 14.0947 21.0325C10.0134 20.9482 6.98249 20.2758 4.94336 18.9973C4.1657 18.5106 3.53336 17.9181 3.0332 17.2307C2.31765 16.0345 1.95899 14.5295 1.95898 12.7131V12.3909C1.95899 10.5745 2.31764 9.06946 3.0332 7.87427C3.53337 7.18689 4.16569 6.59437 4.94336 6.10767C6.98249 4.82914 10.0123 4.15681 14.0947 4.07251Z"/>
</mask>
<path d="M14.0947 4.07251L14.1051 3.57262L14.0947 3.5724L14.0844 3.57262L14.0947 4.07251ZM16.4219 4.19458L16.86 3.95366L16.7313 3.71962L16.4652 3.69646L16.4219 4.19458ZM18.1709 12.5745L18.6708 12.5853L18.671 12.5745L18.6708 12.5637L18.1709 12.5745ZM16.4814 20.9026L16.5264 21.4006L16.7963 21.3762L16.9232 21.1368L16.4814 20.9026ZM14.0947 21.0325L14.0844 21.5324L14.0947 21.5326L14.1051 21.5324L14.0947 21.0325ZM4.94336 18.9973L5.20897 18.5737L5.20862 18.5735L4.94336 18.9973ZM3.0332 17.2307L2.60411 17.4874L2.61567 17.5067L2.62891 17.5249L3.0332 17.2307ZM1.95898 12.7131H1.45898V12.7131L1.95898 12.7131ZM1.95898 12.3909L1.45898 12.3909V12.3909H1.95898ZM3.0332 7.87427L2.62891 7.58008L2.61572 7.5982L2.60421 7.61743L3.0332 7.87427ZM4.94336 6.10767L5.20862 6.5315L5.20897 6.53129L4.94336 6.10767ZM14.0947 4.07251L14.0844 4.5724C14.8902 4.58905 15.6549 4.62971 16.3785 4.6927L16.4219 4.19458L16.4652 3.69646C15.7182 3.63144 14.9314 3.58969 14.1051 3.57262L14.0947 4.07251ZM16.4219 4.19458L15.9837 4.4355C17.0184 6.31705 17.593 8.97188 17.671 12.5853L18.1709 12.5745L18.6708 12.5637C18.5911 8.87441 18.005 6.0359 16.86 3.95366L16.4219 4.19458ZM18.1709 12.5745L17.671 12.5637C17.5944 16.1108 17.0391 18.7832 16.0397 20.6684L16.4814 20.9026L16.9232 21.1368C18.0266 19.0556 18.5926 16.2054 18.6708 12.5853L18.1709 12.5745ZM16.4814 20.9026L16.4365 20.4046C15.6991 20.4712 14.9157 20.5154 14.0844 20.5326L14.0947 21.0325L14.1051 21.5324C14.9588 21.5147 15.7653 21.4693 16.5264 21.4006L16.4814 20.9026ZM14.0947 21.0325L14.1051 20.5326C10.0582 20.449 7.13496 19.7813 5.20897 18.5737L4.94336 18.9973L4.67775 19.4209C6.83002 20.7704 9.96853 21.4474 14.0844 21.5324L14.0947 21.0325ZM4.94336 18.9973L5.20862 18.5735C4.48373 18.1198 3.89905 17.5708 3.4375 16.9365L3.0332 17.2307L2.62891 17.5249C3.16768 18.2653 3.84766 18.9014 4.6781 19.4212L4.94336 18.9973ZM3.0332 17.2307L3.46229 16.974C2.80508 15.8754 2.45899 14.4656 2.45898 12.7131L1.95898 12.7131L1.45898 12.7131C1.45899 14.5934 1.83022 16.1937 2.60411 17.4874L3.0332 17.2307ZM1.95898 12.7131H2.45898V12.3909H1.95898H1.45898V12.7131H1.95898ZM1.95898 12.3909L2.45898 12.3909C2.45899 10.6384 2.80509 9.22866 3.4622 8.1311L3.0332 7.87427L2.60421 7.61743C1.83019 8.91027 1.45899 10.5107 1.45898 12.3909L1.95898 12.3909ZM3.0332 7.87427L3.4375 8.16845C3.89905 7.53414 4.48373 6.98517 5.20862 6.5315L4.94336 6.10767L4.6781 5.68383C3.84766 6.20356 3.16768 6.83964 2.62891 7.58008L3.0332 7.87427ZM4.94336 6.10767L5.20897 6.53129C7.13497 5.3237 10.0572 4.65599 14.105 4.5724L14.0947 4.07251L14.0844 3.57262C9.96747 3.65763 6.83002 4.33459 4.67775 5.68405L4.94336 6.10767Z" fill="white" mask="url(#path-3-inside-1_734_2011)"/>
</svg>
