<svg width="24" height="24" viewBox="0 0 24 24" fill="none" xmlns="http://www.w3.org/2000/svg">
<mask id="mask0_702_14274" style="mask-type:alpha" maskUnits="userSpaceOnUse" x="0" y="0" width="24" height="24">
<rect width="24" height="24" fill="#D9D9D9"/>
</mask>
<g mask="url(#mask0_702_14274)">
<path d="M9.55001 11.9996L16.9 19.3496C17.15 19.5996 17.2708 19.8913 17.2625 20.2246C17.2542 20.558 17.125 20.8496 16.875 21.0996C16.625 21.3496 16.3333 21.4746 16 21.4746C15.6667 21.4746 15.375 21.3496 15.125 21.0996L7.42501 13.4246C7.22501 13.2246 7.07501 12.9996 6.97501 12.7496C6.87501 12.4996 6.82501 12.2496 6.82501 11.9996C6.82501 11.7496 6.87501 11.4996 6.97501 11.2496C7.07501 10.9996 7.22501 10.7746 7.42501 10.5746L15.125 2.87462C15.375 2.62462 15.6708 2.50379 16.0125 2.51212C16.3542 2.52046 16.65 2.64962 16.9 2.89962C17.15 3.14962 17.275 3.44129 17.275 3.77462C17.275 4.10796 17.15 4.39962 16.9 4.64962L9.55001 11.9996Z" fill="#1C1B1F"/>
</g>
</svg>
