<svg width="24" height="24" viewBox="0 0 24 24" fill="none" xmlns="http://www.w3.org/2000/svg">
<path d="M10.0917 20.1834C9.52611 20.1834 9.04194 19.9806 8.63919 19.5751C8.23643 19.1697 8.03505 18.6822 8.03505 18.1128C8.03505 17.5434 8.23643 17.0583 8.63919 16.6576C9.04194 16.257 9.52611 16.0566 10.0917 16.0566H19.9434C20.5089 16.0566 20.9931 16.258 21.3959 16.6608C21.7986 17.0635 22 17.5477 22 18.1133C22 18.6825 21.7986 19.1699 21.3959 19.5753C20.9931 19.9807 20.5089 20.1834 19.9434 20.1834H10.0917ZM10.0917 14.1483C9.52611 14.1483 9.04194 13.9456 8.63919 13.5401C8.23643 13.1346 8.03505 12.6471 8.03505 12.0777C8.03505 11.5083 8.23643 11.0233 8.63919 10.6226C9.04194 10.2219 9.52611 10.0216 10.0917 10.0216H19.9434C20.5089 10.0216 20.9931 10.2229 21.3959 10.6257C21.7986 11.0285 22 11.5126 22 12.0782C22 12.6475 21.7986 13.1348 21.3959 13.5402C20.9931 13.9456 20.5089 14.1483 19.9434 14.1483H10.0917ZM10.0917 8.11325C9.52611 8.11325 9.04194 7.91188 8.63919 7.50913C8.23643 7.10636 8.03505 6.62219 8.03505 6.05662C8.03505 5.49105 8.23643 5.00689 8.63919 4.60412C9.04194 4.20137 9.52611 4 10.0917 4H19.9434C20.5089 4 20.9931 4.20137 21.3959 4.60412C21.7986 5.00689 22 5.49105 22 6.05662C22 6.62219 21.7986 7.10636 21.3959 7.50913C20.9931 7.91188 20.5089 8.11325 19.9434 8.11325H10.0917ZM4.07012 8.11325C3.50454 8.11325 3.02037 7.91188 2.6176 7.50913C2.21485 7.10636 2.01348 6.62219 2.01348 6.05662C2.01348 5.49105 2.21485 5.00689 2.6176 4.60412C3.02037 4.20137 3.50454 4 4.07012 4C4.63568 4 5.11984 4.20137 5.52261 4.60412C5.92536 5.00689 6.12673 5.49105 6.12673 6.05662C6.12673 6.62219 5.92536 7.10636 5.52261 7.50913C5.11984 7.91188 4.63568 8.11325 4.07012 8.11325ZM4.07012 14.1483C3.50083 14.1483 3.0135 13.9456 2.60811 13.5401C2.2027 13.1346 2 12.6471 2 12.0777C2 11.5083 2.20274 11.0233 2.60823 10.6226C3.01371 10.2219 3.50117 10.0216 4.07059 10.0216C4.64 10.0216 5.12505 10.2229 5.52573 10.6257C5.9264 11.0285 6.12673 11.5126 6.12673 12.0782C6.12673 12.6475 5.92536 13.1348 5.52261 13.5402C5.11984 13.9456 4.63568 14.1483 4.07012 14.1483ZM4.07012 20.1834C3.50083 20.1834 3.0135 19.9806 2.60811 19.5751C2.2027 19.1697 2 18.6822 2 18.1128C2 17.5434 2.20274 17.0583 2.60823 16.6576C3.01371 16.257 3.50117 16.0566 4.07059 16.0566C4.64 16.0566 5.12505 16.258 5.52573 16.6608C5.9264 17.0635 6.12673 17.5477 6.12673 18.1133C6.12673 18.6825 5.92536 19.1699 5.52261 19.5753C5.11984 19.9807 4.63568 20.1834 4.07012 20.1834Z" fill="#565656"/>
</svg>
