<svg width="24" height="24" viewBox="0 0 24 24" fill="none" xmlns="http://www.w3.org/2000/svg">
<path fill-rule="evenodd" clip-rule="evenodd" d="M12.5962 4.7002C13.0806 3.69425 14.1096 3 15.3008 3C16.492 3 17.521 3.69425 18.0053 4.7002H20.3C21.018 4.7002 21.6 5.28223 21.6 6.0002C21.6 6.71817 21.018 7.3002 20.3 7.3002H18.0052C17.5207 8.30593 16.4918 9 15.3008 9C14.1097 9 13.0808 8.30593 12.5964 7.3002H4.3C3.58203 7.3002 3 6.71817 3 6.0002C3 5.28223 3.58203 4.7002 4.3 4.7002H12.5962ZM16.3008 6C16.3008 6.55228 15.8531 7 15.3008 7C14.7485 7 14.3008 6.55228 14.3008 6C14.3008 5.44772 14.7485 5 15.3008 5C15.8531 5 16.3008 5.44772 16.3008 6Z" fill="#767676"/>
<path fill-rule="evenodd" clip-rule="evenodd" d="M12.5962 16.7002C13.0806 15.6942 14.1096 15 15.3008 15C16.492 15 17.521 15.6942 18.0053 16.7002H20.3C21.018 16.7002 21.6 17.2822 21.6 18.0002C21.6 18.7182 21.018 19.3002 20.3 19.3002H18.0052C17.5207 20.3059 16.4918 21 15.3008 21C14.1097 21 13.0808 20.3059 12.5964 19.3002H4.3C3.58203 19.3002 3 18.7182 3 18.0002C3 17.2822 3.58203 16.7002 4.3 16.7002H12.5962ZM16.3008 18C16.3008 18.5523 15.8531 19 15.3008 19C14.7485 19 14.3008 18.5523 14.3008 18C14.3008 17.4477 14.7485 17 15.3008 17C15.8531 17 16.3008 17.4477 16.3008 18Z" fill="#767676"/>
<path fill-rule="evenodd" clip-rule="evenodd" d="M6.59622 10.7002C7.08056 9.69425 8.10959 9 9.30078 9C10.492 9 11.521 9.69425 12.0053 10.7002H20.3C21.018 10.7002 21.6 11.2822 21.6 12.0002C21.6 12.7182 21.018 13.3002 20.3 13.3002H12.0052C11.5207 14.3059 10.4918 15 9.30078 15C8.10975 15 7.08082 14.3059 6.59641 13.3002H4.3C3.58203 13.3002 3 12.7182 3 12.0002C3 11.2822 3.58203 10.7002 4.3 10.7002H6.59622ZM10.3008 12C10.3008 12.5523 9.85307 13 9.30078 13C8.7485 13 8.30078 12.5523 8.30078 12C8.30078 11.4477 8.7485 11 9.30078 11C9.85307 11 10.3008 11.4477 10.3008 12Z" fill="#767676"/>
</svg>
