<svg width="20" height="20" viewBox="0 0 20 20" fill="none" xmlns="http://www.w3.org/2000/svg">
<path d="M6.1391 2.66675H13.8608C14.1937 2.66673 14.4597 2.66681 14.6743 2.68433C14.8979 2.7026 15.0892 2.74077 15.2641 2.82983C15.5463 2.97364 15.7756 3.20384 15.9194 3.48608C16.0084 3.66083 16.0466 3.8515 16.0649 4.07495C16.0824 4.28952 16.0834 4.55637 16.0834 4.8894V17.9167C16.0834 18.0071 16.0342 18.0902 15.9555 18.1345C15.8769 18.1787 15.7807 18.1773 15.7036 18.1306L10.2592 14.825L9.99945 14.6677L9.74066 14.825L4.29633 18.1306C4.21914 18.1775 4.12209 18.1788 4.0434 18.1345C3.96492 18.0902 3.91644 18.0069 3.91644 17.9167V4.8894C3.91643 4.55637 3.91649 4.28952 3.93402 4.07495C3.9523 3.85159 3.99061 3.66077 4.07953 3.48608C4.22334 3.20384 4.45354 2.97364 4.73578 2.82983C4.91047 2.74092 5.10128 2.7026 5.32465 2.68433C5.53922 2.6668 5.80607 2.66673 6.1391 2.66675ZM6.16644 3.16675C5.81271 3.16675 5.56166 3.16734 5.36566 3.18335C5.1735 3.19906 5.05529 3.22876 4.96234 3.27612C4.77437 3.37196 4.62166 3.52468 4.52582 3.71265C4.47846 3.80559 4.44876 3.9238 4.43304 4.11597C4.41703 4.31196 4.41644 4.56301 4.41644 4.91675V17.4724L5.17621 17.0115L9.86957 14.1619C9.94929 14.1135 10.0496 14.1135 10.1293 14.1619L14.8237 17.0115L15.5834 17.4724V4.91675C15.5834 4.56301 15.5828 4.31196 15.5668 4.11597C15.5511 3.92379 15.5214 3.8056 15.4741 3.71265C15.3783 3.5247 15.2254 3.37199 15.0375 3.27612C14.9446 3.22879 14.8262 3.19907 14.6342 3.18335C14.4383 3.16734 14.187 3.16675 13.8334 3.16675H6.16644Z" fill="#171719" stroke="#171719"/>
</svg>
