<svg width="20" height="20" viewBox="0 0 20 20" fill="none" xmlns="http://www.w3.org/2000/svg">
<path fill-rule="evenodd" clip-rule="evenodd" d="M8.58938 2.64098C9.08007 1.34168 10.92 1.34168 11.4107 2.64098L12.8399 6.42547L16.892 6.61165C18.2773 6.6753 18.8547 8.42315 17.7632 9.29332L14.5966 11.8177L15.6704 15.7154C16.0414 17.0624 14.5441 18.1323 13.3885 17.3735L10 15.1484L6.61149 17.3735C5.45593 18.1323 3.9586 17.0624 4.32968 15.7154L5.40343 11.8177L2.23683 9.29332C1.1453 8.42315 1.7227 6.6753 3.108 6.61165L7.16015 6.42547L8.58938 2.64098ZM10 4.10167L8.80104 7.27649C8.5881 7.84033 8.06001 8.22179 7.45967 8.24937L4.06771 8.40522L6.718 10.518C7.1888 10.8933 7.3914 11.5133 7.23121 12.0948L6.33132 15.3614L9.17186 13.4961C9.67453 13.1661 10.3255 13.1661 10.8282 13.4961L13.6687 15.3614L12.7688 12.0948C12.6086 11.5133 12.8112 10.8933 13.282 10.518L15.9323 8.40522L12.5404 8.24937C11.94 8.22179 11.4119 7.84032 11.199 7.27649L10 4.10167Z" fill="#9E9E9E"/>
</svg>
