<svg width="20" height="15" viewBox="0 0 20 15" fill="none" xmlns="http://www.w3.org/2000/svg">
<path d="M1.2553 3.73392C1.18547 3.17209 1.8207 2.80133 2.27107 3.14105L5.72977 5.75002C5.98374 5.9416 6.33913 5.91619 6.56362 5.69042L9.54891 2.68792C9.79804 2.43736 10.202 2.43736 10.4511 2.68792L13.4364 5.69042C13.6609 5.91619 14.0163 5.9416 14.2702 5.75002L17.7289 3.14105C18.1793 2.80133 18.8145 3.17209 18.7447 3.73392L17.6552 12.5H2.34478L1.2553 3.73392Z" fill="#FBBA32"/>
<path d="M1.25 13.75C1.25 13.0596 1.80964 12.5 2.5 12.5H17.5C18.1904 12.5 18.75 13.0596 18.75 13.75C18.75 14.4404 18.1904 15 17.5 15H2.5C1.80964 15 1.25 14.4404 1.25 13.75Z" fill="#ED7F20"/>
<circle cx="10" cy="2" r="2" fill="#FBBA32"/>
<circle cx="1.5" cy="2.5" r="1.5" fill="#FBBA32"/>
<circle cx="18.5" cy="2.5" r="1.5" fill="#FBBA32"/>
</svg>
