<svg width="14" height="14" viewBox="0 0 14 14" fill="none" xmlns="http://www.w3.org/2000/svg">
<path d="M7.39552 0.307828L8.16536 1.02609C8.44531 1.28994 8.80923 1.42187 9.17316 1.40721L10.195 1.36324C10.7688 1.33392 11.2587 1.77367 11.3427 2.37467L11.4827 3.44474C11.5387 3.82586 11.7206 4.17766 12.0146 4.42685L12.8264 5.08649C13.2743 5.45295 13.3863 6.12724 13.0924 6.62562L12.5465 7.53445C12.3505 7.87159 12.2805 8.26737 12.3645 8.64849L12.5745 9.7039C12.7004 10.2902 12.3645 10.8766 11.8186 11.0671L10.8388 11.4043C10.4889 11.5215 10.195 11.7854 10.013 12.1225L9.53709 13.0753C9.27114 13.6031 8.65526 13.8376 8.12337 13.6177L7.17157 13.2073C6.82164 13.0607 6.44371 13.0607 6.09378 13.2073L5.14198 13.6177C4.61009 13.8376 4.00821 13.6177 3.72826 13.0753L3.25236 12.1225C3.08439 11.7707 2.77646 11.5215 2.42653 11.4043L1.44673 11.0671C0.900837 10.8766 0.578902 10.2902 0.690879 9.7039L0.900837 8.64849C0.98482 8.26737 0.900837 7.87159 0.718874 7.53445L0.172984 6.62562C-0.134953 6.11258 -0.0229761 5.45295 0.43893 5.08649L1.25077 4.42685C1.54471 4.19232 1.74067 3.84052 1.78266 3.44474L1.92263 2.37467C2.00661 1.77367 2.49651 1.34858 3.0704 1.36324L4.09219 1.40721C4.47011 1.42187 4.82004 1.28994 5.09999 1.02609L5.86983 0.307828C6.28974 -0.102609 6.94761 -0.102609 7.36753 0.307828H7.39552Z" fill="#1E78FF"/>
<path d="M6.6397 11.5511C9.0284 11.5511 10.9648 9.52321 10.9648 7.02165C10.9648 4.5201 9.0284 2.49219 6.6397 2.49219C4.251 2.49219 2.31458 4.5201 2.31458 7.02165C2.31458 9.52321 4.251 11.5511 6.6397 11.5511Z" fill="white"/>
<path d="M4.90405 6.71393L6.26178 8.1358L8.37535 5.90771" fill="white"/>
<path d="M6.26175 8.9859L4.49811 7.13894C4.27415 6.9044 4.27415 6.52328 4.49811 6.28875C4.72206 6.05421 5.08599 6.05421 5.30994 6.28875L6.26175 7.28552L7.9694 5.49719C8.19336 5.26266 8.55728 5.26266 8.78124 5.49719C9.00519 5.73173 9.00519 6.11285 8.78124 6.34738L6.24775 9.00056L6.26175 8.9859Z" fill="#1E78FF"/>
</svg>
