<svg width="16" height="16" viewBox="0 0 16 16" fill="none" xmlns="http://www.w3.org/2000/svg">
<path d="M1.33301 6.33369C1.33302 5.59182 1.55807 4.86741 1.97843 4.25613C2.39879 3.64485 2.99469 3.17546 3.68741 2.90995C4.38014 2.64445 5.13711 2.59532 5.85835 2.76905C6.57959 2.94278 7.23116 3.33121 7.72701 3.88302C7.76193 3.92036 7.80416 3.95013 7.85106 3.97049C7.89796 3.99084 7.94855 4.00134 7.99967 4.00134C8.0508 4.00134 8.10139 3.99084 8.14829 3.97049C8.19519 3.95013 8.23742 3.92036 8.27234 3.88302C8.76663 3.32762 9.41836 2.93593 10.1408 2.76009C10.8632 2.58424 11.622 2.63258 12.3163 2.89867C13.0105 3.16477 13.6073 3.63599 14.0271 4.24962C14.4469 4.86325 14.6699 5.59019 14.6663 6.33369C14.6663 7.86035 13.6663 9.00035 12.6663 10.0004L9.00501 13.5424C8.88079 13.685 8.72763 13.7996 8.55571 13.8786C8.38378 13.9575 8.19704 13.9989 8.00787 14.0001C7.8187 14.0013 7.63144 13.9622 7.45853 13.8855C7.28562 13.8088 7.13103 13.6961 7.00501 13.555L3.33301 10.0004C2.33301 9.00035 1.33301 7.86702 1.33301 6.33369Z" stroke="#F6339A" stroke-width="1.33333" stroke-linecap="round" stroke-linejoin="round"/>
</svg>
