<svg width="20" height="20" viewBox="0 0 20 20" fill="none" xmlns="http://www.w3.org/2000/svg">
<path d="M6.63892 10.173C6.90219 10.173 7.12314 10.084 7.30176 9.90589C7.48037 9.72781 7.56968 9.50713 7.56968 9.24387C7.56968 8.9806 7.48063 8.75965 7.30254 8.58103C7.12445 8.40241 6.90378 8.31311 6.64051 8.31311C6.37724 8.31311 6.1563 8.40215 5.97767 8.58025C5.79906 8.75833 5.70975 8.97901 5.70975 9.24228C5.70975 9.50554 5.7988 9.72649 5.97689 9.90512C6.15498 10.0837 6.37565 10.173 6.63892 10.173ZM9.99922 10.173C10.2625 10.173 10.4834 10.084 10.6621 9.90589C10.8407 9.72781 10.93 9.50713 10.93 9.24387C10.93 8.9806 10.8409 8.75965 10.6628 8.58103C10.4848 8.40241 10.2641 8.31311 10.0008 8.31311C9.73755 8.31311 9.5166 8.40215 9.33797 8.58025C9.15936 8.75833 9.07005 8.97901 9.07005 9.24228C9.07005 9.50554 9.1591 9.72649 9.3372 9.90512C9.51528 10.0837 9.73596 10.173 9.99922 10.173ZM13.3595 10.173C13.6228 10.173 13.8437 10.084 14.0224 9.90589C14.201 9.72781 14.2903 9.50713 14.2903 9.24387C14.2903 8.9806 14.2012 8.75965 14.0231 8.58103C13.8451 8.40241 13.6244 8.31311 13.3611 8.31311C13.0978 8.31311 12.8769 8.40215 12.6983 8.58025C12.5197 8.75833 12.4304 8.97901 12.4304 9.24228C12.4304 9.50554 12.5194 9.72649 12.6975 9.90512C12.8756 10.0837 13.0963 10.173 13.3595 10.173ZM4.84721 15.9861L3.46784 17.3655C3.13366 17.6997 2.74992 17.7759 2.31663 17.5942C1.88333 17.4124 1.66669 17.0879 1.66669 16.6205V4.60712C1.66669 4.01998 1.87109 3.52201 2.27989 3.11321C2.6887 2.7044 3.18667 2.5 3.7738 2.5H16.2262C16.8134 2.5 17.3113 2.7044 17.7201 3.11321C18.129 3.52201 18.3334 4.01998 18.3334 4.60712V13.879C18.3334 14.4662 18.129 14.9641 17.7201 15.3729C17.3113 15.7817 16.8134 15.9861 16.2262 15.9861H4.84721ZM4.17135 13.879H16.2262V4.60712H3.7738V14.2679L4.17135 13.879Z" fill="#9E9E9E"/>
</svg>
