<svg width="25" height="25" viewBox="0 0 25 25" fill="none" xmlns="http://www.w3.org/2000/svg">
<path d="M3.44583 6.11121C2.67819 6.60712 2.05366 7.21038 1.55997 7.91079C0.853663 9.12959 0.5 10.6633 0.5 12.514V12.8422C0.5 14.6929 0.853663 16.2267 1.55997 17.4455C2.05366 18.1459 2.67819 18.7491 3.44583 19.245C5.45843 20.5477 8.44923 21.2327 12.4775 21.3186C16.5068 21.2327 19.4363 20.5477 21.4499 19.245C22.2175 18.7491 22.9463 18.1459 23.44 17.4455C24.1463 16.2267 24.5 14.694 24.5 12.8422V12.514C24.5 10.6633 24.1453 9.12959 23.44 7.91181C22.9463 7.21141 22.3218 6.60814 21.5552 6.11223C19.5416 4.80959 16.5068 4.12452 12.4775 4.03864C8.44821 4.12452 5.45843 4.80959 3.44583 6.11223V6.11121Z" fill="#FB23CB"/>
<path d="M19.1419 3.4454C18.646 2.67777 18.0428 2.05324 17.3424 1.55954C16.1246 0.853235 14.5909 0.499573 12.7402 0.499573H12.4119C10.5612 0.499573 9.02752 0.853235 7.80872 1.55954C7.10832 2.05324 6.50505 2.67777 6.00915 3.4454C4.7065 5.45801 4.02144 8.44881 3.93555 12.4771C4.02144 16.5064 4.7065 19.4359 6.00915 21.4495C6.50505 22.2171 7.10832 22.9459 7.80872 23.4396C9.02752 24.1459 10.5602 24.4996 12.4119 24.4996H12.7402C14.5909 24.4996 16.1246 24.1449 17.3424 23.4396C18.0428 22.9459 18.646 22.3214 19.1419 21.5548C20.4446 19.5411 21.1297 16.5064 21.2155 12.4771C21.1297 8.44778 20.4446 5.45801 19.1419 3.4454Z" fill="#1E78FF"/>
<path d="M12.5342 4.33656C15.5183 4.40081 18.0112 4.79198 19.8633 5.51039C20.5787 7.34402 20.9438 9.76178 21.0068 12.7399C20.9431 15.683 20.4616 17.9901 19.748 19.8336C17.9127 20.5819 15.5681 21.0497 12.5342 21.1149C9.57854 21.0525 7.29611 20.6646 5.46777 19.9567C4.67479 18.3148 4.1851 15.6487 4.11914 12.61C4.1832 9.63201 4.54548 7.27748 5.26172 5.44594C7.09578 4.73185 9.54963 4.40095 12.5342 4.33656Z" fill="#FB23CB" stroke="white" stroke-width="0.5" stroke-miterlimit="10"/>
</svg>
