<svg width="27" height="25" viewBox="0 0 27 25" fill="none" xmlns="http://www.w3.org/2000/svg">
<path d="M12.2481 21.3648C12.7293 22.1256 13.3145 22.7445 13.9941 23.2338C15.1756 23.9337 16.6636 24.2842 18.4591 24.2842H18.7776C20.5731 24.2842 22.0611 23.9337 23.2436 23.2338C23.9231 22.7445 24.5084 22.1256 24.9896 21.3648C26.2534 19.3703 26.918 16.4064 27.0014 12.4143C26.918 8.42116 26.2534 5.51799 24.9896 3.52245C24.5084 2.76171 23.9231 2.03947 23.2436 1.5502C22.0611 0.850242 20.5741 0.499756 18.7776 0.499756H18.4591C16.6636 0.499756 15.1756 0.851255 13.9941 1.5502C13.3145 2.03947 12.7293 2.65839 12.2481 3.41811C10.9843 5.41366 10.3197 8.42116 10.2363 12.4143C10.3197 16.4074 10.9843 19.3703 12.2481 21.3648Z" fill="#FF8F3E"/>
<path d="M20.5346 22.4454C21.2833 21.954 21.8924 21.3562 22.3739 20.662C23.0628 19.4552 23.4078 17.9352 23.4078 16.1012V15.7759C23.4078 13.9418 23.0628 12.4219 22.3739 11.214C21.8924 10.5199 21.2833 9.92204 20.5346 9.43059C18.5717 8.13964 15.6547 7.46073 11.7258 7.37561C7.79594 7.46073 4.93876 8.13964 2.97482 9.43059C2.22613 9.92204 1.51532 10.5199 1.03381 11.214C0.344935 12.4219 0 13.9408 0 15.7759V16.1012C0 17.9352 0.345932 19.4552 1.03381 20.662C1.51532 21.3562 2.12444 21.954 2.87213 22.4454C4.83607 23.7364 7.79594 24.4153 11.7258 24.5004C15.6557 24.4153 18.5717 23.7364 20.5346 22.4454Z" fill="#FF8F3E"/>
<path d="M12.3037 7.6416C16.2741 7.72607 19.1812 8.39659 21.1172 9.63965C21.8482 10.1082 22.4409 10.6768 22.9102 11.335C23.5775 12.4827 23.9199 13.9395 23.9199 15.7217V16.0449C23.9199 17.8268 23.5772 19.283 22.9102 20.4297C22.4408 21.0882 21.8485 21.6573 21.1172 22.126C19.8477 22.9406 18.1579 23.5113 16.0195 23.8301C15.3382 23.6643 14.7262 23.4256 14.1836 23.1162C13.517 22.6496 12.9415 22.0599 12.4678 21.332V21.3311C11.2165 19.4117 10.5408 16.5315 10.4551 12.5947C10.4956 10.7391 10.6672 9.10593 10.9688 7.69531C11.3997 7.66979 11.844 7.65121 12.3037 7.6416Z" fill="#1E78FF" stroke="white" stroke-width="0.5" stroke-miterlimit="10"/>
</svg>
