<svg width="117" height="97" viewBox="0 0 117 97" fill="none" xmlns="http://www.w3.org/2000/svg">
<path d="M7.79725 29.3125C2.27526 31.534 -2.66452 26.5336 1.6293 20.5491C5.92312 14.5646 17.492 5.44904 39.1042 10.6635C54.1983 14.3052 64.2359 28.0011 59.9314 30.1986C53.6896 33.3852 52.8043 21.8119 38.0632 19.1189C32.0196 18.0148 27.7836 18.5991 21.9084 20.55C15.7532 22.5939 13.4937 27.0209 7.79725 29.3125Z" fill="white"/>
<path d="M88.534 21.5935C76.3769 29.0054 66.2203 26.2255 62.3732 22.8291C59.5732 20.3569 60.5265 14.3349 67.2976 18.8125C74.9182 23.8518 85.6102 17.577 93.3045 11.245C100.999 4.91309 106.539 -1.41891 115.156 0.279961C123.774 1.97883 124.66 14.5737 115.156 14.5737C105.688 14.5737 98.1214 15.7483 88.534 21.5935Z" fill="white"/>
<path fill-rule="evenodd" clip-rule="evenodd" d="M111.658 35.6769C110.23 33.492 108.526 31.679 106.499 30.2844C103.045 28.239 98.6229 27.2163 93.3721 27.2163C87.1542 27.2163 82.2719 28.4714 78.6333 30.9352C75.0406 33.3991 72.4613 37.118 70.8953 42.0456C70.4808 43.4402 70.1123 44.9743 69.7899 46.6013C69.6057 47.6705 69.4214 48.7397 69.2833 49.9484V50.3203V50.5063L69.2372 50.5992C68.6384 53.7139 65.921 56.0847 62.6047 56.0847C59.3345 56.0847 56.617 53.7139 55.9722 50.5992V50.5063V50.3203C55.9722 50.3203 55.9262 50.0879 55.9262 49.9484C55.788 48.7862 55.6037 47.6705 55.4195 46.6013C55.0971 44.9743 54.7286 43.4402 54.3141 42.0456C52.7941 37.118 50.2148 33.3991 46.5762 30.9352C42.8914 28.4714 37.9631 27.2163 31.7452 27.2163C26.4484 27.2163 22.0728 28.239 18.5723 30.2379C16.5917 31.6326 14.8415 33.4455 13.4137 35.6304C9.68288 41.3948 7.7484 50.0879 7.47205 61.6166C7.70234 73.1454 9.68288 81.8385 13.4137 87.6028C14.8415 89.7877 16.5457 91.6007 18.5723 92.9953C22.0728 94.9943 26.4484 96.017 31.7452 96.017C37.9631 96.017 42.8454 94.7618 46.4841 92.298C50.0767 89.8342 52.656 86.1152 54.222 81.1876C54.6365 79.793 55.005 78.259 55.3274 76.6319L55.3274 76.6317C55.5116 75.5626 55.6959 74.4934 55.834 73.2849V72.913V72.727L55.8801 72.634C56.4789 69.5194 59.1963 67.1486 62.5126 67.1486C65.7828 67.1486 68.5003 69.5194 69.1451 72.634V72.727V72.913C69.1451 72.913 69.1912 73.1454 69.1912 73.2849C69.3293 74.447 69.5136 75.5627 69.6978 76.6319C70.0202 78.259 70.3887 79.793 70.8032 81.1876C72.3232 86.1152 74.9025 89.8342 78.5411 92.298C82.1337 94.7618 87.062 96.017 93.28 96.017C98.5768 96.017 102.952 94.9943 106.453 92.9953C108.433 91.6007 110.184 89.7877 111.612 87.6028C115.342 81.8385 117.277 73.1454 117.553 61.6166C117.323 50.0879 115.342 41.3948 111.612 35.6304L111.658 35.6769ZM100.837 62.3279L100.835 62.2855C100.835 62.2855 100.526 58.9548 100.427 57.2705C100.327 55.5862 100.338 52.2389 100.338 52.2389L100.347 52.1959L100.343 52.1111L100.334 51.9416C100.34 51.3888 100.362 50.8989 100.383 50.4091L100.383 50.409C100.427 49.663 100.484 48.9588 100.557 48.3175C100.838 46.0504 101.405 44.3208 102.259 43.1501C103.125 41.9788 104.336 41.3421 105.915 41.2599C107.26 41.1899 108.396 41.5983 109.332 42.4634C109.88 43.0724 110.355 43.8764 110.77 44.8536C111.853 47.4322 112.562 51.3691 112.893 56.6218C113.095 61.8813 112.809 65.8699 111.997 68.5472C111.686 69.5621 111.285 70.4118 110.815 71.0737C109.973 72.0313 108.886 72.5553 107.54 72.6253C105.961 72.7075 104.68 72.2004 103.686 71.1259C102.703 70.0508 101.96 68.3894 101.458 66.1631C101.32 65.5328 101.19 64.8383 101.07 64.1008C100.997 63.6158 100.924 63.1096 100.862 62.5816C100.858 62.518 100.841 62.4127 100.841 62.4127L100.837 62.3279ZM36.4981 62.2855L36.5003 62.3279L36.5047 62.4127C36.5047 62.4127 36.5219 62.518 36.5252 62.5816C36.5877 63.1096 36.6609 63.6158 36.7329 64.1008C36.8532 64.8383 36.9831 65.5328 37.1213 66.1631C37.6237 68.3894 38.3667 70.0508 39.349 71.1259C40.3431 72.2004 41.6245 72.7075 43.2037 72.6253C44.549 72.5553 45.6362 72.0313 46.478 71.0737C46.9481 70.4118 47.3498 69.5621 47.6608 68.5472C48.4722 65.8699 48.7581 61.8813 48.556 56.6218C48.2251 51.3691 47.5167 47.4322 46.433 44.8536C46.0188 43.8764 45.5431 43.0724 44.9954 42.4634C44.0591 41.5983 42.9237 41.1899 41.5784 41.2599C39.9991 41.3421 38.7888 41.9788 37.9228 43.1501C37.0686 44.3208 36.5013 46.0504 36.22 48.3175C36.1477 48.9588 36.0903 49.663 36.0469 50.409L36.0469 50.4091L36.0468 50.4093C36.0253 50.899 36.0038 51.3888 35.9973 51.9416L36.006 52.1111L36.0104 52.1959L36.0009 52.2389C36.0009 52.2389 35.9909 55.5862 36.0899 57.2705C36.1889 58.9548 36.4981 62.2855 36.4981 62.2855Z" fill="white"/>
<path d="M116.689 44.5547H108.863C104.713 40.6462 99.1124 38.2454 92.9577 38.2454C85.7151 38.2454 79.2399 41.5703 74.9933 46.7642C68.2932 41.4896 58.7178 41.4806 52.0062 46.7642C47.7597 41.5703 41.2847 38.2454 34.0419 38.2454C27.8871 38.2454 22.2863 40.6464 18.1365 44.5547H10.3105C8.48224 44.5547 7 46.0278 7 47.845C7 49.6621 8.48224 51.1353 10.3105 51.1353H13.26C11.7504 54.1885 10.9007 57.6199 10.9007 61.2454C10.9007 73.9276 21.2819 84.2454 34.0421 84.2454C46.8023 84.2454 57.1835 73.9276 57.1835 61.2454C57.1835 58.15 56.5635 55.1962 55.4432 52.4982C59.9833 48.3515 67.0105 48.3458 71.557 52.4982C70.4365 55.1962 69.8167 58.15 69.8167 61.2454C69.8167 73.9276 80.198 84.2454 92.9581 84.2454C105.718 84.2454 116.1 73.9276 116.1 61.2454C116.1 57.6199 115.25 54.1885 113.74 51.1353H116.689C118.518 51.1353 120 49.6621 120 47.845C120 46.0278 118.518 44.5547 116.689 44.5547ZM34.0421 77.6647C24.9328 77.6647 17.5218 70.299 17.5218 61.2454C17.5218 52.1917 24.9328 44.826 34.0421 44.826C43.1514 44.826 50.5624 52.1917 50.5624 61.2454C50.5624 70.299 43.1514 77.6647 34.0421 77.6647ZM92.9579 77.6647C83.8486 77.6647 76.4376 70.299 76.4376 61.2454C76.4376 52.1917 83.8486 44.826 92.9579 44.826C102.067 44.826 109.478 52.1917 109.478 61.2454C109.478 70.299 102.067 77.6647 92.9579 77.6647Z" fill="#FB23CB"/>
</svg>
