<svg width="18" height="18" viewBox="0 0 18 18" fill="none" xmlns="http://www.w3.org/2000/svg">
<path d="M9 12.7232C9.2506 12.7232 9.45656 12.6425 9.6179 12.4811C9.77876 12.3203 9.85919 12.1146 9.85919 11.864V9.1253C9.85919 8.88663 9.77876 8.68663 9.6179 8.5253C9.45656 8.36444 9.2506 8.28401 9 8.28401C8.7494 8.28401 8.54367 8.36754 8.38282 8.53461C8.22148 8.70167 8.14081 8.90453 8.14081 9.1432V11.8819C8.14081 12.1205 8.22148 12.3203 8.38282 12.4811C8.54367 12.6425 8.7494 12.7232 9 12.7232ZM9 7.04893C9.26253 7.04893 9.48043 6.96229 9.6537 6.78902C9.82649 6.61623 9.91289 6.39857 9.91289 6.13604C9.91289 5.87351 9.82649 5.65561 9.6537 5.48234C9.48043 5.30955 9.26253 5.22315 9 5.22315C8.73747 5.22315 8.51981 5.30955 8.34702 5.48234C8.17375 5.65561 8.08711 5.87351 8.08711 6.13604C8.08711 6.39857 8.17375 6.61623 8.34702 6.78902C8.51981 6.96229 8.73747 7.04893 9 7.04893ZM9 16.5C7.94988 16.5 6.97136 16.3031 6.06444 15.9093C5.15752 15.5155 4.36706 14.9816 3.69308 14.3076C3.01862 13.6332 2.48449 12.8425 2.09069 11.9356C1.6969 11.0286 1.5 10.0501 1.5 9C1.5 7.94988 1.6969 6.97136 2.09069 6.06444C2.48449 5.15752 3.01862 4.36683 3.69308 3.69236C4.36706 3.01838 5.15752 2.48449 6.06444 2.09069C6.97136 1.6969 7.94988 1.5 9 1.5C10.0501 1.5 11.0286 1.6969 11.9356 2.09069C12.8425 2.48449 13.6332 3.01838 14.3076 3.69236C14.9816 4.36683 15.5155 5.15752 15.9093 6.06444C16.3031 6.97136 16.5 7.94988 16.5 9C16.5 10.0501 16.3031 11.0286 15.9093 11.9356C15.5155 12.8425 14.9816 13.6332 14.3076 14.3076C13.6332 14.9816 12.8425 15.5155 11.9356 15.9093C11.0286 16.3031 10.0501 16.5 9 16.5ZM9 14.6026C10.5513 14.6026 11.873 14.0597 12.9652 12.9737C14.0568 11.8878 14.6026 10.5632 14.6026 9C14.6026 7.43675 14.0568 6.11217 12.9652 5.02625C11.873 3.94033 10.5513 3.39737 9 3.39737C7.44869 3.39737 6.12721 3.94033 5.03556 5.02625C3.94344 6.11217 3.39737 7.43675 3.39737 9C3.39737 10.5632 3.94344 11.8878 5.03556 12.9737C6.12721 14.0597 7.44869 14.6026 9 14.6026Z" fill="#BDBDBD"/>
</svg>
