<svg width="19" height="15" viewBox="0 0 19 15" fill="none" xmlns="http://www.w3.org/2000/svg">
<path d="M1.21481 4.56856C0.354487 4.91467 -0.415132 4.13561 0.253846 3.20323C0.922824 2.27084 2.72526 0.850627 6.09245 1.66303C8.44412 2.23043 10.008 4.36425 9.33733 4.70662C8.36486 5.20309 8.22693 3.39997 5.93026 2.9804C4.98867 2.80838 4.32869 2.89942 3.41334 3.20337C2.45436 3.5218 2.10232 4.21152 1.21481 4.56856Z" fill="black"/>
<path d="M13.7927 3.36427C11.8986 4.51904 10.3162 4.08594 9.71684 3.55676C9.28059 3.1716 9.42911 2.23338 10.4841 2.93098C11.6713 3.7161 13.3372 2.73849 14.5359 1.75197C15.7347 0.76545 16.5978 -0.221078 17.9405 0.0436062C19.2831 0.30829 19.4211 2.27058 17.9405 2.27058C16.4653 2.27058 15.2864 2.45358 13.7927 3.36427Z" fill="black"/>
<path fill-rule="evenodd" clip-rule="evenodd" d="M17.3963 5.5584C17.1739 5.218 16.9084 4.93553 16.5926 4.71825C16.0544 4.39957 15.3655 4.24023 14.5474 4.24023C13.5787 4.24023 12.818 4.43579 12.2511 4.81965C11.6914 5.20351 11.2895 5.78293 11.0456 6.55065C10.981 6.76793 10.9236 7.00694 10.8733 7.26043C10.8446 7.42701 10.8159 7.5936 10.7944 7.7819V7.83985V7.86882L10.7872 7.8833C10.6939 8.36856 10.2705 8.73794 9.75387 8.73794C9.24437 8.73794 8.82099 8.36856 8.72052 7.8833V7.86882V7.83985C8.72052 7.83985 8.71335 7.80363 8.71335 7.7819C8.69182 7.60084 8.66312 7.42701 8.63441 7.26043C8.58418 7.00694 8.52677 6.76793 8.46219 6.55065C8.22538 5.78293 7.82352 5.20351 7.25662 4.81965C6.68254 4.43579 5.9147 4.24023 4.94594 4.24023C4.1207 4.24023 3.43898 4.39957 2.8936 4.71101C2.58503 4.92829 2.31235 5.21075 2.08989 5.55116C1.50863 6.44925 1.20724 7.80363 1.16418 9.59982C1.20006 11.396 1.50863 12.7504 2.08989 13.6485C2.31235 13.9889 2.57786 14.2713 2.8936 14.4886C3.43898 14.8001 4.1207 14.9594 4.94594 14.9594C5.9147 14.9594 6.67536 14.7638 7.24227 14.38C7.802 13.9961 8.20385 13.4167 8.44784 12.649C8.51242 12.4317 8.56983 12.1927 8.62006 11.9392L8.62007 11.9392C8.64877 11.7726 8.67747 11.606 8.699 11.4177V11.3598V11.3308L8.70617 11.3163C8.79946 10.8311 9.22285 10.4617 9.73952 10.4617C10.249 10.4617 10.6724 10.8311 10.7729 11.3163V11.3308V11.3598C10.7729 11.3598 10.78 11.396 10.78 11.4177C10.8016 11.5988 10.8303 11.7726 10.859 11.9392C10.9092 12.1927 10.9666 12.4317 11.0312 12.649C11.268 13.4167 11.6699 13.9961 12.2368 14.38C12.7965 14.7638 13.5643 14.9594 14.5331 14.9594C15.3583 14.9594 16.0401 14.8001 16.5854 14.4886C16.894 14.2713 17.1667 13.9889 17.3891 13.6485C17.9704 12.7504 18.2718 11.396 18.3149 9.59982C18.279 7.80363 17.9704 6.44925 17.3891 5.55116L17.3963 5.5584ZM15.7105 9.71063L15.7101 9.70403C15.7101 9.70403 15.6619 9.18511 15.6465 8.92269C15.6311 8.66027 15.6327 8.13876 15.6327 8.13876L15.6341 8.13206L15.6335 8.11886L15.6321 8.09244C15.6331 8.00631 15.6365 7.93 15.6398 7.85368L15.6398 7.85366C15.6466 7.73744 15.6555 7.62772 15.6668 7.52781C15.7106 7.17459 15.799 6.90513 15.9321 6.72273C16.067 6.54024 16.2556 6.44104 16.5016 6.42824C16.7112 6.41733 16.8881 6.48096 17.034 6.61573C17.1193 6.71062 17.1934 6.83588 17.258 6.98813C17.4268 7.38988 17.5372 8.00324 17.5887 8.82163C17.6202 9.64106 17.5757 10.2625 17.4493 10.6796C17.4008 10.8377 17.3382 10.9701 17.265 11.0732C17.1338 11.2224 16.9645 11.3041 16.7549 11.315C16.5088 11.3278 16.3092 11.2488 16.1543 11.0814C16.0012 10.9139 15.8855 10.655 15.8072 10.3082C15.7857 10.21 15.7654 10.1018 15.7467 9.98685C15.7355 9.91129 15.7241 9.83242 15.7143 9.75016C15.7138 9.74025 15.7111 9.72384 15.7111 9.72384L15.7105 9.71063ZM5.68645 9.70403L5.68679 9.71063L5.68748 9.72384C5.68748 9.72384 5.69015 9.74025 5.69067 9.75016C5.70041 9.83242 5.71181 9.91129 5.72304 9.98685C5.74178 10.1018 5.76201 10.21 5.78355 10.3082C5.86183 10.655 5.97758 10.9139 6.13063 11.0814C6.28551 11.2488 6.48514 11.3278 6.73119 11.315C6.94079 11.3041 7.11017 11.2224 7.24133 11.0732C7.31456 10.9701 7.37715 10.8377 7.42561 10.6796C7.55202 10.2625 7.59657 9.64106 7.56507 8.82163C7.51353 8.00324 7.40316 7.38988 7.23432 6.98813C7.16977 6.83588 7.09567 6.71062 7.01034 6.61573C6.86447 6.48096 6.68756 6.41733 6.47796 6.42824C6.23191 6.44104 6.04334 6.54024 5.90842 6.72273C5.77533 6.90513 5.68695 7.17459 5.64312 7.52781C5.63185 7.62772 5.62292 7.73744 5.61615 7.85366L5.61615 7.85368L5.61615 7.8537C5.61279 7.93001 5.60944 8.00632 5.60842 8.09244L5.60979 8.11886L5.61047 8.13206L5.60899 8.13876C5.60899 8.13876 5.60743 8.66027 5.62285 8.92269C5.63828 9.18511 5.68645 9.70403 5.68645 9.70403Z" fill="black"/>
<path d="M6.49549 8.17589V6.55035C6.84323 6.609 7.17111 6.75169 7.45143 6.96597C7.50732 7.00429 7.57289 7.02508 7.64077 7.026C7.85828 7.026 8.03562 6.85097 8.03792 6.63347C8.03838 6.54019 8.0019 6.4506 7.93633 6.3841C7.53132 6.03728 7.02334 5.8327 6.49088 5.80223V5.25729C6.49088 5.10166 6.36481 4.97559 6.20917 4.97559C6.20595 4.97513 6.2027 4.97513 6.19947 4.97513C6.04154 4.97281 5.91131 5.0989 5.90899 5.25729V5.78375C4.86994 5.85764 4.16338 6.49955 4.16338 7.35388C4.16338 8.40217 5.05466 8.69312 5.90899 8.92401V10.7712C5.45827 10.7107 5.03342 10.5237 4.68521 10.2309C4.61964 10.1787 4.53835 10.1497 4.4543 10.1478C4.24141 10.1626 4.07748 10.3408 4.08023 10.5542C4.07978 10.6475 4.11626 10.7371 4.18183 10.8036C4.65888 11.233 5.27215 11.4801 5.91359 11.5009V12.0089C5.91359 12.0121 5.91405 12.0154 5.91405 12.0186C5.92144 12.1765 6.05583 12.2984 6.21376 12.2906C6.3694 12.2906 6.49547 12.1645 6.49547 12.0089V11.4917C7.75619 11.4085 8.26417 10.6419 8.26417 9.82917C8.2642 8.7393 7.34984 8.4068 6.49549 8.17589ZM5.91362 8.02812C5.41026 7.88034 5.01773 7.72795 5.01773 7.29847C5.01773 6.86899 5.37332 6.55958 5.91362 6.51803V8.02812ZM6.49549 10.7805V9.09951C7.01734 9.24728 7.42371 9.44586 7.4191 9.93075C7.4191 10.2817 7.17896 10.6973 6.49549 10.7805Z" fill="#FF4B1E"/>
<path d="M17.0469 8.17589V6.55035C17.3946 6.609 17.7225 6.75169 18.0028 6.96597C18.0587 7.00429 18.1243 7.02508 18.1922 7.026C18.4097 7.026 18.587 6.85097 18.5893 6.63347C18.5898 6.54019 18.5533 6.4506 18.4877 6.3841C18.0827 6.03728 17.5747 5.8327 17.0423 5.80223V5.25729C17.0423 5.10166 16.9162 4.97559 16.7606 4.97559C16.7573 4.97513 16.7541 4.97513 16.7509 4.97513C16.5929 4.97281 16.4627 5.0989 16.4604 5.25729V5.78375C15.4213 5.85764 14.7148 6.49955 14.7148 7.35388C14.7148 8.40217 15.6061 8.69312 16.4604 8.92401V10.7712C16.0097 10.7107 15.5848 10.5237 15.2366 10.2309C15.171 10.1787 15.0897 10.1497 15.0057 10.1478C14.7928 10.1626 14.6289 10.3408 14.6316 10.5542C14.6312 10.6475 14.6676 10.7371 14.7332 10.8036C15.2103 11.233 15.8235 11.4801 16.465 11.5009V12.0089C16.465 12.0121 16.4654 12.0154 16.4654 12.0186C16.4728 12.1765 16.6072 12.2984 16.7652 12.2906C16.9208 12.2906 17.0469 12.1645 17.0469 12.0089V11.4917C18.3076 11.4085 18.8156 10.6419 18.8156 9.82917C18.8156 8.7393 17.9012 8.4068 17.0469 8.17589ZM16.465 8.02812C15.9616 7.88034 15.5691 7.72795 15.5691 7.29847C15.5691 6.86899 15.9247 6.55958 16.465 6.51803V8.02812ZM17.0469 10.7805V9.09951C17.5687 9.24728 17.9751 9.44586 17.9705 9.93075C17.9705 10.2817 17.7304 10.6973 17.0469 10.7805Z" fill="#FF4B1E"/>
</svg>
